<?xml version="1.0" standalone="no"?>
<!DOCTYPE svg PUBLIC "-//W3C//DTD SVG 20010904//EN"
 "http://www.w3.org/TR/2001/REC-SVG-20010904/DTD/svg10.dtd">
<svg version="1.0" xmlns="http://www.w3.org/2000/svg"
 width="225.000000pt" height="225.000000pt" viewBox="0 0 225.000000 225.000000"
 preserveAspectRatio="xMidYMid meet">

<g transform="translate(0.000000,225.000000) scale(0.100000,-0.100000)"
fill="#000000" stroke="none">
<path d="M217 1503 l2 -168 126 -3 125 -3 0 -374 0 -375 298 1 c212 1 282 4
243 10 -80 14 -165 56 -210 104 -45 49 -79 133 -88 216 l-6 59 166 0 c188 0
170 9 180 -87 22 -194 239 -316 533 -300 208 12 331 83 412 239 l27 53 5 398
5 397 -320 -1 c-276 -1 -313 -2 -270 -13 142 -35 241 -132 261 -255 l7 -41
-167 0 -166 0 -10 24 c-33 88 -195 125 -264 61 -59 -55 -20 -104 102 -130 262
-56 391 -105 459 -173 71 -70 100 -177 66 -242 -36 -70 -132 -105 -223 -81
-63 16 -93 41 -110 92 -21 59 -59 79 -239 123 -281 69 -394 153 -408 305 -13
146 87 269 258 315 50 13 19 15 -371 15 l-425 1 2 -167z"/>
</g>
</svg>
